<?xml version="1.0" encoding="UTF-8"?>
<svg id="Layer_2" data-name="Layer 2" xmlns="http://www.w3.org/2000/svg" viewBox="0 0 71.02 52.5">
  <defs>
    <style>
      .cls-1 {
        fill: #241f20;
        stroke-width: 0px;
      }
    </style>
  </defs>
  <g id="Layer_1-2" data-name="Layer 1">
    <path class="cls-1" d="M71.02,48.17c-.09.28-.17.57-.27.85-.66,2-2.46,3.37-4.56,3.47-.21,0-.42.01-.62.01-20.04,0-40.08,0-60.11,0-2.61,0-4.56-1.33-5.22-3.61-.16-.57-.23-1.18-.23-1.78C0,33.21,0,19.29,0,5.38,0,2.13,2.13,0,5.39,0,20.76,0,36.13,0,51.5,0c4.44,0,8.88,0,13.31,0,3.72,0,4.96.87,6.21,4.33v43.83ZM5.31,3.37s-.08.1-.11.14c.18.14.37.26.53.42,9.61,8.94,19.23,17.88,28.84,26.82,1.04.96.82.99,1.9,0,9.09-8.45,18.18-16.9,27.27-25.36.69-.64,1.37-1.28,2.15-2.02H5.31ZM5.14,49.12h60.74c-7.44-6.92-14.77-13.74-22.13-20.58-.22.2-.39.34-.56.5-1.63,1.51-3.24,3.03-4.88,4.53-1.83,1.68-3.79,1.68-5.61,0-1.65-1.52-3.29-3.05-4.93-4.58-.16-.15-.33-.29-.51-.46-7.38,6.86-14.7,13.67-22.13,20.58ZM3.38,6.3v39.91c7.2-6.69,14.31-13.31,21.46-19.96C17.67,19.59,10.57,12.98,3.38,6.3ZM67.65,6.29c-7.21,6.7-14.32,13.32-21.47,19.96,7.18,6.68,14.28,13.28,21.47,19.96V6.29Z"/>
  </g>
</svg>