<?xml version="1.0" encoding="UTF-8"?>
<svg id="Layer_2" data-name="Layer 2" xmlns="http://www.w3.org/2000/svg" viewBox="0 0 65.71 65.71">
  <defs>
    <style>
      .cls-1 {
        fill: #241f20;
        stroke-width: 0px;
      }
    </style>
  </defs>
  <g id="Layer_1-2" data-name="Layer 1">
    <g>
      <path class="cls-1" d="M50.25,11.73c-2.13,0-3.85,1.72-3.85,3.85s1.72,3.85,3.85,3.85,3.85-1.72,3.85-3.85-1.72-3.85-3.85-3.85Z"/>
      <path class="cls-1" d="M33.12,16.67c-8.92,0-16.18,7.26-16.18,16.18s7.26,16.18,16.18,16.18,16.18-7.26,16.18-16.18-7.26-16.18-16.18-16.18ZM33.12,43.22c-5.72,0-10.37-4.65-10.37-10.37s4.65-10.37,10.37-10.37,10.37,4.65,10.37,10.37-4.65,10.37-10.37,10.37Z"/>
      <path class="cls-1" d="M45.97,65.71h-26.23c-10.88,0-19.74-8.85-19.74-19.74v-26.24C0,8.85,8.85,0,19.74,0h26.23c10.88,0,19.74,8.85,19.74,19.74v26.24c0,10.88-8.86,19.74-19.74,19.74ZM19.74,6.18c-7.47,0-13.56,6.08-13.56,13.56v26.24c0,7.47,6.08,13.56,13.56,13.56h26.23c7.47,0,13.56-6.08,13.56-13.56v-26.24c0-7.47-6.08-13.56-13.56-13.56h-26.23Z"/>
    </g>
  </g>
</svg>