<?xml version="1.0" encoding="UTF-8"?>
<svg id="Layer_2" data-name="Layer 2" xmlns="http://www.w3.org/2000/svg" viewBox="0 0 65.02 65.17">
  <defs>
    <style>
      .cls-1, .cls-2 {
        fill: #241f20;
        stroke-width: 0px;
      }

      .cls-2 {
        fill-rule: evenodd;
      }
    </style>
  </defs>
  <g id="Layer_1-2" data-name="Layer 1">
    <g>
      <path class="cls-1" d="M0,65.17l4.67-17.43c-2.65-4.77-4.04-10.12-4.04-15.55C.63,14.44,15.08,0,32.82,0s32.19,14.44,32.19,32.19-14.44,32.19-32.19,32.19c-5.33,0-10.59-1.35-15.3-3.9L0,65.17ZM18.39,53.95l1.1.66c4.05,2.41,8.66,3.69,13.33,3.69,14.39,0,26.11-11.71,26.11-26.11S47.22,6.08,32.82,6.08,6.72,17.79,6.72,32.19c0,4.75,1.32,9.43,3.82,13.54l.68,1.11-2.61,9.73,9.79-2.62Z"/>
      <path class="cls-2" d="M44.8,36.67c-1.33-.79-3.05-1.68-4.61-1.04-1.2.49-1.96,2.36-2.74,3.32-.4.49-.87.57-1.48.32-4.5-1.79-7.94-4.79-10.42-8.93-.42-.64-.34-1.15.16-1.75.75-.88,1.69-1.88,1.89-3.07.2-1.19-.35-2.58-.85-3.64-.63-1.35-1.33-3.28-2.69-4.05-1.25-.7-2.89-.31-4,.59-1.92,1.56-2.84,4-2.81,6.43,0,.69.09,1.38.25,2.04.39,1.6,1.13,3.09,1.96,4.51.63,1.07,1.31,2.11,2.04,3.11,2.4,3.27,5.4,6.1,8.86,8.23,1.73,1.06,3.59,1.99,5.52,2.63,2.16.72,4.09,1.46,6.43,1.02,2.45-.46,4.86-1.98,5.83-4.34.29-.7.43-1.48.27-2.21-.33-1.52-2.4-2.43-3.63-3.17Z"/>
    </g>
  </g>
</svg>