<?xml version="1.0" encoding="UTF-8"?>
<svg id="Layer_2" data-name="Layer 2" xmlns="http://www.w3.org/2000/svg" viewBox="0 0 64.27 64.3">
  <defs>
    <style>
      .cls-1 {
        fill: #241f20;
        stroke-width: 0px;
      }
    </style>
  </defs>
  <g id="Layer_1-2" data-name="Layer 1">
    <path class="cls-1" d="M0,32.17C0,14.44,14.42,0,32.14,0c17.72,0,32.14,14.44,32.14,32.17,0,17.72-14.46,32.15-32.17,32.14C14.42,64.28,0,49.86,0,32.17ZM19.92,23.61c-.85,5.7-.85,11.38,0,17.09h24.38c.9-2.89.9-14.12,0-17.09h-24.38ZM43.49,19.27c-1.12-4.25-2.57-8.26-5.42-11.59-.8-.93-1.78-1.77-2.81-2.44-2.01-1.3-4.16-1.35-6.17-.03-1.14.75-2.19,1.7-3.09,2.72-1.74,1.98-2.88,4.34-3.79,6.8-.54,1.47-.99,2.98-1.5,4.54h22.78ZM20.71,45.03c.52,1.58.96,3.1,1.51,4.58,1.1,2.9,2.51,5.62,4.72,7.85,3.37,3.39,6.97,3.39,10.35.03,1.8-1.79,3.1-3.92,4.06-6.24.84-2,1.5-4.08,2.27-6.21h-22.92ZM15.62,40.7c-.83-5.73-.81-11.41,0-17.1H5.64c-1.8,5.71-1.81,11.39,0,17.1h9.97ZM58.63,40.7c1.81-5.71,1.81-11.4,0-17.09h-9.98c.83,5.71.8,11.39,0,17.09h9.96ZM42.64,6.45c2.54,3.84,4.12,8.05,5.16,12.48.1.43.38.35.66.35,2.19,0,4.37,0,6.56,0,.57,0,1.14,0,1.81,0-3.27-6.02-7.95-10.28-14.19-12.84ZM42.64,57.84c6.24-2.56,10.93-6.82,14.18-12.83-2.93,0-5.74,0-8.55.02-.16,0-.42.23-.46.39-1.08,4.4-2.64,8.59-5.17,12.42ZM7.44,19.29c2.76,0,5.39-.02,8.02.02.69.01.98-.14,1.15-.87.99-4.22,2.55-8.2,5-11.81.03-.04.03-.11.07-.29-6.28,2.66-10.96,6.92-14.25,12.95ZM21.64,57.84c-2.53-3.83-4.11-8.02-5.15-12.43-.11-.46-.38-.4-.69-.4-2.61,0-5.22,0-7.83,0-.14,0-.28.02-.51.04,3.26,5.99,7.94,10.25,14.17,12.8Z"/>
  </g>
</svg>